<svg width="13" height="9" viewBox="0 0 13 9" fill="none" xmlns="http://www.w3.org/2000/svg">
<path d="M6.53875 8.00003C6.35378 8.00049 6.17452 7.91911 6.03208 7.77003L1.28209 2.77003C1.12041 2.60029 1.01874 2.35638 0.999444 2.09196C0.980143 1.82753 1.04479 1.56425 1.17917 1.36003C1.31354 1.15581 1.50664 1.02739 1.71598 1.00301C1.92532 0.978631 2.13375 1.06029 2.29542 1.23003L6.53875 5.71003L10.7821 1.39003C10.8631 1.30697 10.9562 1.24493 11.0563 1.2075C11.1563 1.17007 11.2612 1.15798 11.3649 1.17192C11.4686 1.18586 11.5692 1.22555 11.6607 1.28873C11.7522 1.3519 11.833 1.4373 11.8983 1.54003C11.9708 1.64285 12.0257 1.76348 12.0596 1.89435C12.0935 2.02523 12.1056 2.16353 12.0952 2.30059C12.0848 2.43765 12.0521 2.57053 11.9992 2.69088C11.9462 2.81124 11.8741 2.91649 11.7875 3.00003L7.0375 7.83003C6.89098 7.95555 6.71537 8.0154 6.53875 8.00003Z" fill="white"/>
</svg>
