<svg width="19" height="13" viewBox="0 0 19 13" fill="none" xmlns="http://www.w3.org/2000/svg">
<path d="M9.38008 12.0001C9.08059 12.0008 8.79036 11.8686 8.55976 11.6263L0.869284 3.50133C0.60753 3.22551 0.442922 2.82915 0.411674 2.39946C0.380425 1.96977 0.485095 1.54193 0.702657 1.21008C0.920218 0.878229 1.23285 0.66954 1.57178 0.629923C1.91071 0.590306 2.24816 0.723006 2.50992 0.998831L9.38008 8.27883L16.2502 1.25883C16.3813 1.12385 16.5322 1.02305 16.6941 0.962222C16.8561 0.901395 17.0259 0.881743 17.1938 0.904394C17.3618 0.927045 17.5245 0.991553 17.6728 1.09421C17.821 1.19687 17.9517 1.33565 18.0575 1.50258C18.1749 1.66967 18.2638 1.86568 18.3186 2.07835C18.3735 2.29102 18.3931 2.51576 18.3762 2.73849C18.3594 2.96122 18.3065 3.17714 18.2207 3.37271C18.135 3.56829 18.0183 3.73932 17.8781 3.87508L10.1876 11.7238C9.95035 11.9278 9.66604 12.0251 9.38008 12.0001V12.0001Z" fill="white"/>
</svg>
