<svg width="14" height="10" viewBox="0 0 14 10" fill="none" xmlns="http://www.w3.org/2000/svg">
<path d="M6.98902 9.99662C6.75578 9.99727 6.52974 9.88108 6.35014 9.66822L0.360621 2.52905C0.156761 2.2867 0.0285612 1.93843 0.00422411 1.56087C-0.020113 1.18332 0.0614062 0.807395 0.230848 0.515808C0.40029 0.22422 0.643776 0.0408521 0.90774 0.0060419C1.1717 -0.0287683 1.43452 0.0878306 1.63838 0.330189L6.98902 6.72688L12.3397 0.558643C12.4418 0.440039 12.5593 0.351468 12.6854 0.298022C12.8115 0.244576 12.9438 0.227308 13.0746 0.24721C13.2054 0.267113 13.3321 0.323794 13.4475 0.413995C13.563 0.504197 13.6648 0.626141 13.7472 0.772818C13.8386 0.91963 13.9079 1.09186 13.9506 1.27873C13.9933 1.4656 14.0086 1.66307 13.9954 1.85877C13.9823 2.05447 13.9411 2.24419 13.8743 2.41604C13.8076 2.58789 13.7167 2.73817 13.6074 2.85745L7.61792 9.75389C7.43316 9.93311 7.21173 10.0186 6.98902 9.99662Z" fill="white"/>
</svg>
