<svg width="308" height="49" viewBox="0 0 308 49" fill="none" xmlns="http://www.w3.org/2000/svg">
<g filter="url(#filter0_d_7_449)">
<path d="M29.7715 14.332H34.377V17.0742C34.9746 16.1367 35.7832 15.375 36.8027 14.7891C37.8223 14.2031 38.9531 13.9102 40.1953 13.9102C42.3633 13.9102 44.2031 14.7598 45.7148 16.459C47.2266 18.1582 47.9824 20.5254 47.9824 23.5605C47.9824 26.6777 47.2207 29.1035 45.6973 30.8379C44.1738 32.5605 42.3281 33.4219 40.1602 33.4219C39.1289 33.4219 38.1914 33.2168 37.3477 32.8066C36.5156 32.3965 35.6367 31.6934 34.7109 30.6973V40.1016H29.7715V14.332ZM34.6582 23.3496C34.6582 25.4473 35.0742 27 35.9062 28.0078C36.7383 29.0039 37.752 29.502 38.9473 29.502C40.0957 29.502 41.0508 29.0449 41.8125 28.1309C42.5742 27.2051 42.9551 25.6934 42.9551 23.5957C42.9551 21.6387 42.5625 20.1855 41.7773 19.2363C40.9922 18.2871 40.0195 17.8125 38.8594 17.8125C37.6523 17.8125 36.6504 18.2812 35.8535 19.2188C35.0566 20.1445 34.6582 21.5215 34.6582 23.3496ZM56.6484 33H51.709V14.332H56.2969V16.9863C57.082 15.7324 57.7852 14.9063 58.4062 14.5078C59.0391 14.1094 59.7539 13.9102 60.5508 13.9102C61.6758 13.9102 62.7598 14.2207 63.8027 14.8418L62.2734 19.1484C61.4414 18.6094 60.668 18.3398 59.9531 18.3398C59.2617 18.3398 58.6758 18.5332 58.1953 18.9199C57.7148 19.2949 57.334 19.9805 57.0527 20.9766C56.7832 21.9727 56.6484 24.0586 56.6484 27.2344V33ZM65.9473 11.8008V7.23047H70.8867V11.8008H65.9473ZM65.9473 33V14.332H70.8867V33H65.9473ZM81.0996 33L73.5762 14.332H78.7617L82.2773 23.8594L83.2969 27.041C83.5664 26.2324 83.7363 25.6992 83.8066 25.4414C83.9707 24.9141 84.1465 24.3867 84.334 23.8594L87.8848 14.332H92.9648L85.5469 33H81.0996ZM99.6973 20.0273L95.2148 19.2188C95.7188 17.4141 96.5859 16.0781 97.8164 15.2109C99.0469 14.3438 100.875 13.9102 103.301 13.9102C105.504 13.9102 107.145 14.1738 108.223 14.7012C109.301 15.2168 110.057 15.8789 110.49 16.6875C110.936 17.4844 111.158 18.9551 111.158 21.0996L111.105 26.8652C111.105 28.5059 111.182 29.7188 111.334 30.5039C111.498 31.2773 111.797 32.1094 112.23 33H107.344C107.215 32.6719 107.057 32.1855 106.869 31.541C106.787 31.248 106.729 31.0547 106.693 30.9609C105.85 31.7812 104.947 32.3965 103.986 32.8066C103.025 33.2168 102 33.4219 100.91 33.4219C98.9883 33.4219 97.4707 32.9004 96.3574 31.8574C95.2559 30.8145 94.7051 29.4961 94.7051 27.9023C94.7051 26.8477 94.957 25.9102 95.4609 25.0898C95.9648 24.2578 96.668 23.625 97.5703 23.1914C98.4844 22.7461 99.7969 22.3594 101.508 22.0312C103.816 21.5977 105.416 21.1934 106.307 20.8184V20.3262C106.307 19.377 106.072 18.7031 105.604 18.3047C105.135 17.8945 104.25 17.6895 102.949 17.6895C102.07 17.6895 101.385 17.8652 100.893 18.2168C100.4 18.5566 100.002 19.1602 99.6973 20.0273ZM106.307 24.0352C105.674 24.2461 104.672 24.498 103.301 24.791C101.93 25.084 101.033 25.3711 100.611 25.6523C99.9668 26.1094 99.6445 26.6895 99.6445 27.3926C99.6445 28.084 99.9023 28.6816 100.418 29.1855C100.934 29.6895 101.59 29.9414 102.387 29.9414C103.277 29.9414 104.127 29.6484 104.936 29.0625C105.533 28.6172 105.926 28.0723 106.113 27.4277C106.242 27.0059 106.307 26.2031 106.307 25.0195V24.0352ZM119.736 20.0273L115.254 19.2188C115.758 17.4141 116.625 16.0781 117.855 15.2109C119.086 14.3438 120.914 13.9102 123.34 13.9102C125.543 13.9102 127.184 14.1738 128.262 14.7012C129.34 15.2168 130.096 15.8789 130.529 16.6875C130.975 17.4844 131.197 18.9551 131.197 21.0996L131.145 26.8652C131.145 28.5059 131.221 29.7188 131.373 30.5039C131.537 31.2773 131.836 32.1094 132.27 33H127.383C127.254 32.6719 127.096 32.1855 126.908 31.541C126.826 31.248 126.768 31.0547 126.732 30.9609C125.889 31.7812 124.986 32.3965 124.025 32.8066C123.064 33.2168 122.039 33.4219 120.949 33.4219C119.027 33.4219 117.51 32.9004 116.396 31.8574C115.295 30.8145 114.744 29.4961 114.744 27.9023C114.744 26.8477 114.996 25.9102 115.5 25.0898C116.004 24.2578 116.707 23.625 117.609 23.1914C118.523 22.7461 119.836 22.3594 121.547 22.0312C123.855 21.5977 125.455 21.1934 126.346 20.8184V20.3262C126.346 19.377 126.111 18.7031 125.643 18.3047C125.174 17.8945 124.289 17.6895 122.988 17.6895C122.109 17.6895 121.424 17.8652 120.932 18.2168C120.439 18.5566 120.041 19.1602 119.736 20.0273ZM126.346 24.0352C125.713 24.2461 124.711 24.498 123.34 24.791C121.969 25.084 121.072 25.3711 120.65 25.6523C120.006 26.1094 119.684 26.6895 119.684 27.3926C119.684 28.084 119.941 28.6816 120.457 29.1855C120.973 29.6895 121.629 29.9414 122.426 29.9414C123.316 29.9414 124.166 29.6484 124.975 29.0625C125.572 28.6172 125.965 28.0723 126.152 27.4277C126.281 27.0059 126.346 26.2031 126.346 25.0195V24.0352ZM144.645 14.332V18.2695H141.27V25.793C141.27 27.3164 141.299 28.207 141.357 28.4648C141.428 28.7109 141.574 28.916 141.797 29.0801C142.031 29.2441 142.312 29.3262 142.641 29.3262C143.098 29.3262 143.76 29.168 144.627 28.8516L145.049 32.6836C143.9 33.1758 142.6 33.4219 141.146 33.4219C140.256 33.4219 139.453 33.2754 138.738 32.9824C138.023 32.6777 137.496 32.291 137.156 31.8223C136.828 31.3418 136.6 30.6973 136.471 29.8887C136.365 29.3145 136.312 28.1543 136.312 26.4082V18.2695H134.045V14.332H136.312V10.623L141.27 7.74023V14.332H144.645ZM146.332 27.6738L151.289 26.918C151.5 27.8789 151.928 28.6113 152.572 29.1152C153.217 29.6074 154.119 29.8535 155.279 29.8535C156.557 29.8535 157.518 29.6191 158.162 29.1504C158.596 28.8223 158.812 28.3828 158.812 27.832C158.812 27.457 158.695 27.1465 158.461 26.9004C158.215 26.666 157.664 26.4492 156.809 26.25C152.824 25.3711 150.299 24.5684 149.232 23.8418C147.756 22.834 147.018 21.4336 147.018 19.6406C147.018 18.0234 147.656 16.6641 148.934 15.5625C150.211 14.4609 152.191 13.9102 154.875 13.9102C157.43 13.9102 159.328 14.3262 160.57 15.1582C161.812 15.9902 162.668 17.2207 163.137 18.8496L158.479 19.7109C158.279 18.9844 157.898 18.4277 157.336 18.041C156.785 17.6543 155.994 17.4609 154.963 17.4609C153.662 17.4609 152.73 17.6426 152.168 18.0059C151.793 18.2637 151.605 18.5977 151.605 19.0078C151.605 19.3594 151.77 19.6582 152.098 19.9043C152.543 20.2324 154.078 20.6953 156.703 21.293C159.34 21.8906 161.18 22.623 162.223 23.4902C163.254 24.3691 163.77 25.5938 163.77 27.1641C163.77 28.875 163.055 30.3457 161.625 31.5762C160.195 32.8066 158.08 33.4219 155.279 33.4219C152.736 33.4219 150.721 32.9062 149.232 31.875C147.756 30.8438 146.789 29.4434 146.332 27.6738ZM180.398 33V30.2051C179.719 31.2012 178.822 31.9863 177.709 32.5605C176.607 33.1348 175.441 33.4219 174.211 33.4219C172.957 33.4219 171.832 33.1465 170.836 32.5957C169.84 32.0449 169.119 31.2715 168.674 30.2754C168.229 29.2793 168.006 27.9023 168.006 26.1445V14.332H172.945V22.9102C172.945 25.5352 173.033 27.1465 173.209 27.7441C173.396 28.3301 173.73 28.7988 174.211 29.1504C174.691 29.4902 175.301 29.6602 176.039 29.6602C176.883 29.6602 177.639 29.4316 178.307 28.9746C178.975 28.5059 179.432 27.9316 179.678 27.252C179.924 26.5605 180.047 24.8789 180.047 22.207V14.332H184.986V33H180.398ZM188.379 27.6738L193.336 26.918C193.547 27.8789 193.975 28.6113 194.619 29.1152C195.264 29.6074 196.166 29.8535 197.326 29.8535C198.604 29.8535 199.564 29.6191 200.209 29.1504C200.643 28.8223 200.859 28.3828 200.859 27.832C200.859 27.457 200.742 27.1465 200.508 26.9004C200.262 26.666 199.711 26.4492 198.855 26.25C194.871 25.3711 192.346 24.5684 191.279 23.8418C189.803 22.834 189.064 21.4336 189.064 19.6406C189.064 18.0234 189.703 16.6641 190.98 15.5625C192.258 14.4609 194.238 13.9102 196.922 13.9102C199.477 13.9102 201.375 14.3262 202.617 15.1582C203.859 15.9902 204.715 17.2207 205.184 18.8496L200.525 19.7109C200.326 18.9844 199.945 18.4277 199.383 18.041C198.832 17.6543 198.041 17.4609 197.01 17.4609C195.709 17.4609 194.777 17.6426 194.215 18.0059C193.84 18.2637 193.652 18.5977 193.652 19.0078C193.652 19.3594 193.816 19.6582 194.145 19.9043C194.59 20.2324 196.125 20.6953 198.75 21.293C201.387 21.8906 203.227 22.623 204.27 23.4902C205.301 24.3691 205.816 25.5938 205.816 27.1641C205.816 28.875 205.102 30.3457 203.672 31.5762C202.242 32.8066 200.127 33.4219 197.326 33.4219C194.783 33.4219 192.768 32.9062 191.279 31.875C189.803 30.8438 188.836 29.4434 188.379 27.6738ZM210.158 33V28.0605H215.098V33H210.158ZM230.988 27.0586L235.91 27.8848C235.277 29.6895 234.275 31.0664 232.904 32.0156C231.545 32.9531 229.84 33.4219 227.789 33.4219C224.543 33.4219 222.141 32.3613 220.582 30.2402C219.352 28.541 218.736 26.3965 218.736 23.8066C218.736 20.7129 219.545 18.293 221.162 16.5469C222.779 14.7891 224.824 13.9102 227.297 13.9102C230.074 13.9102 232.266 14.8301 233.871 16.6699C235.477 18.498 236.244 21.3047 236.174 25.0898H223.799C223.834 26.5547 224.232 27.6973 224.994 28.5176C225.756 29.3262 226.705 29.7305 227.842 29.7305C228.615 29.7305 229.266 29.5195 229.793 29.0977C230.32 28.6758 230.719 27.9961 230.988 27.0586ZM231.27 22.0664C231.234 20.6367 230.865 19.5527 230.162 18.8145C229.459 18.0645 228.604 17.6895 227.596 17.6895C226.518 17.6895 225.627 18.082 224.924 18.8672C224.221 19.6523 223.875 20.7188 223.887 22.0664H231.27ZM251.027 27.0586L255.949 27.8848C255.316 29.6895 254.314 31.0664 252.943 32.0156C251.584 32.9531 249.879 33.4219 247.828 33.4219C244.582 33.4219 242.18 32.3613 240.621 30.2402C239.391 28.541 238.775 26.3965 238.775 23.8066C238.775 20.7129 239.584 18.293 241.201 16.5469C242.818 14.7891 244.863 13.9102 247.336 13.9102C250.113 13.9102 252.305 14.8301 253.91 16.6699C255.516 18.498 256.283 21.3047 256.213 25.0898H243.838C243.873 26.5547 244.271 27.6973 245.033 28.5176C245.795 29.3262 246.744 29.7305 247.881 29.7305C248.654 29.7305 249.305 29.5195 249.832 29.0977C250.359 28.6758 250.758 27.9961 251.027 27.0586ZM251.309 22.0664C251.273 20.6367 250.904 19.5527 250.201 18.8145C249.498 18.0645 248.643 17.6895 247.635 17.6895C246.557 17.6895 245.666 18.082 244.963 18.8672C244.26 19.6523 243.914 20.7188 243.926 22.0664H251.309Z" fill="#001AFF"/>
</g>
<defs>
<filter id="filter0_d_7_449" x="-4" y="0" width="316" height="57" filterUnits="userSpaceOnUse" color-interpolation-filters="sRGB">
<feFlood flood-opacity="0" result="BackgroundImageFix"/>
<feColorMatrix in="SourceAlpha" type="matrix" values="0 0 0 0 0 0 0 0 0 0 0 0 0 0 0 0 0 0 127 0" result="hardAlpha"/>
<feOffset dy="4"/>
<feGaussianBlur stdDeviation="2"/>
<feComposite in2="hardAlpha" operator="out"/>
<feColorMatrix type="matrix" values="0 0 0 0 0 0 0 0 0 0 0 0 0 0 0 0 0 0 0.25 0"/>
<feBlend mode="normal" in2="BackgroundImageFix" result="effect1_dropShadow_7_449"/>
<feBlend mode="normal" in="SourceGraphic" in2="effect1_dropShadow_7_449" result="shape"/>
</filter>
</defs>
</svg>
