<svg width="12" height="19" viewBox="0 0 12 19" fill="none" xmlns="http://www.w3.org/2000/svg">
<path d="M11.9778 9.5086C11.9779 9.81203 11.8434 10.1058 11.5974 10.339L3.3498 18.1145C3.06981 18.3792 2.66789 18.5452 2.23247 18.576C1.79705 18.6068 1.36378 18.4998 1.02799 18.2787C0.692199 18.0576 0.481387 17.7405 0.44193 17.397C0.402473 17.0535 0.537602 16.7119 0.817592 16.4472L8.20744 9.50111L1.10868 2.52621C0.97218 2.3931 0.870353 2.24005 0.80905 2.07586C0.747747 1.91166 0.728177 1.73957 0.751465 1.56945C0.774753 1.39934 0.840439 1.23456 0.944749 1.0846C1.04906 0.934631 1.18994 0.802434 1.35928 0.695602C1.52881 0.577007 1.72759 0.48733 1.94317 0.432183C2.15876 0.377039 2.3865 0.357619 2.61213 0.375136C2.83776 0.392651 3.05642 0.446728 3.25441 0.53398C3.45239 0.621232 3.62544 0.739779 3.76271 0.882189L11.6995 8.68989C11.9057 8.93066 12.0036 9.21892 11.9778 9.5086Z" fill="white"/>
</svg>
