<svg width="84" height="91" viewBox="0 0 84 91" fill="none" xmlns="http://www.w3.org/2000/svg">
<g filter="url(#filter0_d_103_505)">
<path fill-rule="evenodd" clip-rule="evenodd" d="M4 22.7744C4 22.7767 4 22.779 4 22.7813C4.00018 27.9294 4.39813 34.2683 5.75582 40.9109H42V0C41.2571 1.93698e-07 40.5143 0.159953 39.823 0.479858C36.1736 2.16881 28.7009 5.51022 23.3982 7.0976C18.7684 8.48355 12.4843 9.52283 8.53507 10.0944C6.32357 10.4144 4.56103 12.1064 4.3638 14.3322C4.17686 16.4418 4.00012 19.3435 4 22.7744Z" fill="#50E370"/>
<path fill-rule="evenodd" clip-rule="evenodd" d="M42 82.1603C41.5292 82.1603 41.0584 82.0915 40.6154 81.954C17.9942 74.9324 9.05004 57.0276 5.75586 40.9106H42V82.1603Z" fill="#001AFF"/>
<path fill-rule="evenodd" clip-rule="evenodd" d="M78.2442 40.9109H42V0C42.7429 0 43.4857 0.159953 44.177 0.479859C47.8264 2.16881 55.2991 5.51022 60.6018 7.0976C65.2316 8.48355 71.5157 9.52283 75.4649 10.0944C77.6764 10.4144 79.439 12.1064 79.6362 14.3322C80.1037 19.6081 80.5075 29.8375 78.2442 40.9109Z" fill="#001AFF"/>
<path fill-rule="evenodd" clip-rule="evenodd" d="M78.2442 40.9106C74.95 57.0276 66.0059 74.9325 43.3847 81.954C42.9417 82.0915 42.4708 82.1603 42 82.1603V40.9106H78.2442Z" fill="#50E370"/>
</g>
<defs>
<filter id="filter0_d_103_505" x="0" y="0" width="84" height="90.1603" filterUnits="userSpaceOnUse" color-interpolation-filters="sRGB">
<feFlood flood-opacity="0" result="BackgroundImageFix"/>
<feColorMatrix in="SourceAlpha" type="matrix" values="0 0 0 0 0 0 0 0 0 0 0 0 0 0 0 0 0 0 127 0" result="hardAlpha"/>
<feOffset dy="4"/>
<feGaussianBlur stdDeviation="2"/>
<feComposite in2="hardAlpha" operator="out"/>
<feColorMatrix type="matrix" values="0 0 0 0 0 0 0 0 0 0 0 0 0 0 0 0 0 0 0.25 0"/>
<feBlend mode="normal" in2="BackgroundImageFix" result="effect1_dropShadow_103_505"/>
<feBlend mode="normal" in="SourceGraphic" in2="effect1_dropShadow_103_505" result="shape"/>
</filter>
</defs>
</svg>
